HIERARCHY
ROOT Hips
{
	OFFSET -0.001795 -0.223333 0.028219
	CHANNELS 6 Xposition Yposition Zposition Zrotation Yrotation Xrotation 
	JOINT LeftUpLeg
	{
		OFFSET 0.069520 -0.091406 -0.006815
		CHANNELS 3 Zrotation Yrotation Xrotation
		JOINT LeftLeg
		{
			OFFSET 0.034277 -0.375199 -0.004496
			CHANNELS 3 Zrotation Yrotation Xrotation
			JOINT LeftFoot
			{
				OFFSET -0.013596 -0.397961 -0.043693
				CHANNELS 3 Zrotation Yrotation Xrotation
				JOINT LeftToe
				{
					OFFSET 0.026358 -0.055791 0.119288
					CHANNELS 3 Zrotation Yrotation Xrotation
					End Site
					{
						OFFSET 0.000000 0.000000 0.000000
					}
				}
			}
		}
	}
	JOINT RightUpLeg
	{
		OFFSET -0.067670 -0.090522 -0.004320
		CHANNELS 3 Zrotation Yrotation Xrotation
		JOINT RightLeg
		{
			OFFSET -0.038290 -0.382569 -0.008850
			CHANNELS 3 Zrotation Yrotation Xrotation
			JOINT RightFoot
			{
				OFFSET 0.015774 -0.398415 -0.042312
				CHANNELS 3 Zrotation Yrotation Xrotation
				JOINT RightToe
				{
					OFFSET -0.025372 -0.048144 0.123348
					CHANNELS 3 Zrotation Yrotation Xrotation
					End Site
					{
						OFFSET 0.000000 0.000000 0.000000
					}
				}
			}
		}
	}
	JOINT Spine
	{
		OFFSET -0.002533 0.108963 -0.026696
		CHANNELS 3 Zrotation Yrotation Xrotation
		JOINT Spine1
		{
			OFFSET 0.005487 0.135180 0.001092
			CHANNELS 3 Zrotation Yrotation Xrotation
			JOINT Spine2
			{
				OFFSET 0.001457 0.052922 0.025425
				CHANNELS 3 Zrotation Yrotation Xrotation
				JOINT Neck
				{
					OFFSET -0.002778 0.213870 -0.042857
					CHANNELS 3 Zrotation Yrotation Xrotation
					JOINT Head
					{
						OFFSET 0.005152 0.064970 0.051349
						CHANNELS 3 Zrotation Yrotation Xrotation
						End Site
						{
							OFFSET 0.000000 0.000000 0.000000
						}
					}
				}
				JOINT LeftShoulder
				{
					OFFSET 0.078845 0.121749 -0.034090
					CHANNELS 3 Zrotation Yrotation Xrotation
					JOINT LeftArm
					{
						OFFSET 0.090977 0.030469 -0.008868
						CHANNELS 3 Zrotation Yrotation Xrotation
						JOINT LeftForeArm
						{
							OFFSET 0.259612 -0.012772 -0.027456
							CHANNELS 3 Zrotation Yrotation Xrotation
							JOINT LeftHand
							{
								OFFSET 0.249234 0.008986 -0.001171
								CHANNELS 3 Zrotation Yrotation Xrotation
								End Site
								{
									OFFSET 0.000000 0.000000 0.000000
								}
							}
						}
					}
				}
				JOINT RightShoulder
				{
					OFFSET -0.081759 0.118833 -0.038615
					CHANNELS 3 Zrotation Yrotation Xrotation
					JOINT RightArm
					{
						OFFSET -0.096012 0.032551 -0.009143
						CHANNELS 3 Zrotation Yrotation Xrotation
						JOINT RightForeArm
						{
							OFFSET -0.253742 -0.013329 -0.021401
							CHANNELS 3 Zrotation Yrotation Xrotation
							JOINT RightHand
							{
								OFFSET -0.255298 0.007772 -0.005559
								CHANNELS 3 Zrotation Yrotation Xrotation
								End Site
								{
									OFFSET 0.000000 0.000000 0.000000
								}
							}
						}
					}
				}
			}
		}
	}
}
MOTION
Frames: 11
Frame Time: 0.050000
-1.056114 0.738779 -0.084646 -9.916105 -22.899661 14.718734 24.123965 15.937826 -53.571470 -0.172227 4.093433 69.525901 7.957484 14.185512 -18.343305 0.000000 0.000000 0.000000 -38.770943 -1.533613 -46.025094 20.597560 -5.130325 36.408519 -9.690283 -24.519937 28.603245 0.000000 0.000000 0.000000 -1.357468 6.508717 62.210374 -2.712163 0.987302 -32.796425 -2.446706 6.470228 25.730917 17.623270 -0.792424 -57.980843 0.000000 0.000000 0.000000 -17.105406 -28.060283 14.189609 -23.810187 -21.766925 -0.531081 -9.466159 -51.717436 6.742465 0.000000 0.000000 0.000000 27.468194 20.315353 11.740911 54.531958 37.196817 10.188688 14.768126 55.514002 11.321733 0.000000 0.000000 0.000000 
-1.095887 0.721490 -0.093573 -7.950212 -20.933464 13.070678 25.771151 15.811647 -53.010236 0.409314 2.954538 69.827144 6.589760 10.053683 -17.954676 0.000000 0.000000 0.000000 -39.792002 -2.654406 -46.640096 23.229211 -7.194010 41.173480 -10.730992 -25.928847 21.299041 0.000000 0.000000 0.000000 1.122740 4.291812 63.850475 -4.128389 1.208005 -32.448593 -4.245165 4.910707 24.817204 17.785620 -1.005168 -56.996707 0.000000 0.000000 0.000000 -17.086505 -29.119870 14.837975 -22.654117 -21.920243 -0.496140 -7.004217 -50.279256 5.328966 0.000000 0.000000 0.000000 28.624310 19.179170 10.789448 55.207116 36.977541 10.417608 15.460263 55.063451 11.410143 0.000000 0.000000 0.000000 
-1.136866 0.708267 -0.105535 -6.331438 -19.723393 11.753960 27.284950 15.885750 -52.230768 0.649707 2.295769 69.350444 5.898367 7.996286 -17.684223 0.000000 0.000000 0.000000 -40.851437 -3.673944 -47.954511 26.554695 -9.875458 45.521085 -12.796796 -29.260578 16.759574 0.000000 0.000000 0.000000 2.182312 3.300797 65.641245 -4.389997 1.264043 -32.414640 -4.636665 3.463667 25.155269 16.746391 -0.773872 -57.276385 0.000000 0.000000 0.000000 -16.986431 -29.916891 15.393586 -21.531408 -23.137670 -0.416417 -1.873102 -49.548241 2.878920 0.000000 0.000000 0.000000 26.555018 19.169048 10.145415 54.829111 37.116072 10.397126 16.476525 56.156817 12.046985 0.000000 0.000000 0.000000 
-1.177571 0.701860 -0.119168 -4.901830 -18.897812 11.056635 28.946031 15.948506 -50.740707 0.377594 2.138397 66.346305 4.840159 5.741790 -15.372220 0.000000 0.000000 0.000000 -40.482890 -4.230370 -49.781729 28.333696 -11.946380 49.740754 -13.544669 -31.252826 11.696489 0.000000 0.000000 0.000000 2.956751 2.494463 66.374599 -3.930300 1.189114 -32.070946 -5.483329 3.238136 24.785291 16.591817 -0.712133 -57.207954 0.000000 0.000000 0.000000 -16.884718 -30.809693 15.789970 -21.436721 -23.329374 -0.363233 1.156722 -48.779532 1.454643 0.000000 0.000000 0.000000 26.233863 18.681154 9.805081 53.055441 36.700798 9.713359 16.497890 56.623576 12.086112 0.000000 0.000000 0.000000 
-1.217930 0.701365 -0.132804 -3.298484 -17.317860 11.268846 29.778011 15.157295 -49.371755 -0.332138 2.154223 61.275446 5.164801 7.339799 -13.965903 0.000000 0.000000 0.000000 -41.290982 -5.314841 -51.052158 30.797941 -14.348508 51.338766 -14.244267 -33.141406 8.458223 0.000000 0.000000 0.000000 3.911051 1.198791 66.515372 -4.240721 1.247178 -31.997021 -6.029647 2.237565 24.700347 15.570758 -0.500653 -57.024377 0.000000 0.000000 0.000000 -17.309641 -31.354819 16.375312 -21.181475 -24.987710 -0.173294 3.724492 -48.105341 0.348199 0.000000 0.000000 0.000000 25.519101 18.665034 9.492186 51.406630 36.150567 9.023098 15.821750 56.267323 11.456858 0.000000 0.000000 0.000000 
-1.258722 0.706564 -0.145985 -1.579530 -15.885552 11.521663 31.013695 14.401595 -47.283898 -1.206454 2.154856 54.513871 4.995863 8.750363 -7.250533 0.000000 0.000000 0.000000 -40.111238 -5.718924 -52.273658 30.937067 -15.345807 53.455730 -14.307471 -34.541829 3.833303 0.000000 0.000000 0.000000 4.771149 -0.000180 66.091827 -4.633062 1.317451 -32.536684 -6.829892 1.884875 25.663734 16.451137 -0.812480 -56.540099 0.000000 0.000000 0.000000 -17.550816 -32.408422 17.118285 -21.022818 -25.844044 -0.136209 4.564706 -47.731909 0.003069 0.000000 0.000000 0.000000 23.308482 18.388235 9.069746 50.472761 36.401321 8.757953 15.002143 56.015803 10.926551 0.000000 0.000000 0.000000 
-1.300690 0.716112 -0.158162 0.308363 -14.603431 11.594668 31.771045 13.168610 -44.453523 -3.218715 2.819596 47.663533 5.572801 10.976249 -2.370668 0.000000 0.000000 0.000000 -39.471112 -6.001688 -52.087898 30.824651 -15.745930 54.252622 -14.695718 -36.100430 1.414133 0.000000 0.000000 0.000000 5.476439 -1.019707 65.433958 -4.866719 1.375904 -31.978880 -7.541746 1.578954 25.799117 15.293004 -0.554036 -56.362574 0.000000 0.000000 0.000000 -18.472534 -32.571385 17.528543 -21.361762 -26.371927 -0.048827 4.894063 -48.525320 -0.104488 0.000000 0.000000 0.000000 21.219275 17.954563 8.592308 49.961845 37.088841 8.884633 16.090432 54.987549 11.204105 0.000000 0.000000 0.000000 
-1.344165 0.726053 -0.169393 1.873300 -13.482589 11.091303 33.253056 12.286464 -41.030024 -5.745209 3.422131 40.143347 6.380513 13.422641 6.516383 0.000000 0.000000 0.000000 -37.584543 -5.681629 -51.526417 31.137336 -16.017490 54.552337 -14.196037 -37.024255 -3.906319 0.000000 0.000000 0.000000 6.580093 -2.179036 64.563893 -5.792047 1.556809 -31.157975 -8.151257 1.594837 25.724479 15.119764 -0.475515 -56.365403 0.000000 0.000000 0.000000 -19.268434 -32.901594 17.891492 -22.920034 -25.785732 0.039331 3.745176 -49.031637 0.430508 0.000000 0.000000 0.000000 19.628972 17.307602 8.099005 50.130486 36.898015 8.841949 17.500154 54.260885 11.713932 0.000000 0.000000 0.000000 
-1.388022 0.738217 -0.179302 2.575411 -12.629738 10.728965 33.953722 11.188781 -37.741833 -5.405812 2.580463 33.564506 5.990238 13.266711 13.726242 0.000000 0.000000 0.000000 -35.193441 -4.895981 -49.870060 31.752094 -15.911857 53.387999 -15.124820 -40.370724 -6.349908 0.000000 0.000000 0.000000 7.029934 -2.756190 62.886843 -6.116967 1.665466 -30.178461 -7.944530 2.799552 26.144123 14.176608 -0.192552 -56.533733 0.000000 0.000000 0.000000 -18.524000 -31.937829 16.778632 -24.943543 -26.440848 0.348173 2.421281 -49.165815 1.049549 0.000000 0.000000 0.000000 16.387596 16.959360 7.894166 51.747709 37.700709 9.665578 18.158047 53.492071 12.020262 0.000000 0.000000 0.000000 
-1.429588 0.750570 -0.187741 2.589797 -12.129636 10.850729 35.234985 11.074165 -36.234761 -5.626278 2.356097 30.297585 6.646395 14.684029 21.408269 0.000000 0.000000 0.000000 -32.030723 -3.896465 -49.252704 31.896150 -15.684839 52.898639 -16.393846 -43.337403 -6.246426 0.000000 0.000000 0.000000 6.858938 -2.812672 61.408218 -5.525019 1.591672 -28.894574 -7.703627 4.559176 24.925426 14.212544 -0.152583 -56.115129 0.000000 0.000000 0.000000 -19.879785 -30.485453 15.797011 -26.785110 -25.088070 0.394395 1.416601 -49.486404 1.458561 0.000000 0.000000 0.000000 16.093012 16.424258 8.004129 49.735580 37.522398 9.151542 21.114927 53.400835 13.669435 0.000000 0.000000 0.000000 
-1.466171 0.766239 -0.193827 2.918039 -11.199210 10.651125 34.098732 10.474264 -36.853898 -5.452110 2.197409 30.162943 7.457495 15.973906 24.699684 0.000000 0.000000 0.000000 -28.289216 -2.798660 -47.808608 29.497234 -14.048330 52.742714 -17.096666 -44.192045 -5.223456 0.000000 0.000000 0.000000 7.166518 -3.274450 59.361720 -6.471798 1.798346 -28.765072 -6.706196 5.721858 25.566342 13.698233 -0.063981 -55.961941 0.000000 0.000000 0.000000 -21.458498 -29.508214 15.289040 -27.641579 -24.396917 0.319133 0.649615 -49.256836 1.769472 0.000000 0.000000 0.000000 15.178564 15.265797 7.566509 50.423817 37.239301 9.181621 23.856667 53.714073 15.450270 0.000000 0.000000 0.000000 
